# xmcd
#
# Track frame offsets:
#	150
#	11143
#	21691
#	34890
#	48047
#	56969
#	67358
#	81852
#	96101
#	109085
#	117820
#	131325
#
# Disc length: 1936 seconds
#
# Revision: 1
# Processed by: cddbd v1.4PL0 Copyright (c) Steve Scherf et al.
# Submitted via: audiograbber 1.82.02
#
DISCID=a9078e0c
DTITLE=Slim Dusty - Encores
DYEAR=1969
DGENRE=Country
TTITLE0=My Old Aussie Homestead
TTITLE1=You Stepped Out Of Line
TTITLE2=The Paper Boy
TTITLE3=Old Home Week
TTITLE4=Youve Got The Cleanest Mind
TTITLE5=Fair Dinkum
TTITLE6=Pastures Of Home
TTITLE7=Dreamin On The Sliprail
TTITLE8=Thats A Sad Affair
TTITLE9=Lonely Lonesome Blues
TTITLE10=The Whispering Bush
TTITLE11=Where The Western Clouds
EXTD=This is a sort of best of for Slim. But not very comprehensive at that tim
EXTD=e. 
EXTT0=
EXTT1=
EXTT2=
EXTT3=
EXTT4=
EXTT5=
EXTT6=
EXTT7=
EXTT8=
EXTT9=
EXTT10=
EXTT11=
PLAYORDER=
